<?xml version="1.0" encoding="utf-8"?>
<!-- Generator: Adobe Illustrator 27.5.0, SVG Export Plug-In . SVG Version: 6.00 Build 0)  -->
<svg version="1.1" xmlns="http://www.w3.org/2000/svg" xmlns:xlink="http://www.w3.org/1999/xlink" x="0px" y="0px"
	 viewBox="0 0 800 800" style="enable-background:new 0 0 800 800;" xml:space="preserve">
<g id="BACKGROUND">
	<rect style="fill:#FFC5AE;" width="800" height="800"/>
</g>
<g id="OBJECTS">
	<g style="opacity:0.07;">
		<g>
			<rect y="22.108" style="fill:#5B3333;" width="800" height="5.104"/>
			<rect y="19.045" style="fill:#5B3333;" width="800" height="5.104"/>
		</g>
		<g>
			<rect y="58.854" style="fill:#5B3333;" width="800" height="5.104"/>
			<rect y="55.792" style="fill:#5B3333;" width="800" height="5.104"/>
		</g>
		<g>
			<rect y="98.663" style="fill:#5B3333;" width="800" height="5.104"/>
			<rect y="95.601" style="fill:#5B3333;" width="800" height="5.104"/>
		</g>
		<g>
			<rect y="135.41" style="fill:#5B3333;" width="800" height="5.104"/>
			<rect y="132.348" style="fill:#5B3333;" width="800" height="5.104"/>
		</g>
		<g>
			<rect y="135.41" style="fill:#5B3333;" width="800" height="5.104"/>
			<rect y="132.348" style="fill:#5B3333;" width="800" height="5.104"/>
		</g>
		<g>
			<rect y="172.157" style="fill:#5B3333;" width="800" height="5.104"/>
			<rect y="169.094" style="fill:#5B3333;" width="800" height="5.104"/>
		</g>
		<g>
			<rect y="211.965" style="fill:#5B3333;" width="800" height="5.104"/>
			<rect y="208.903" style="fill:#5B3333;" width="800" height="5.104"/>
		</g>
		<g>
			<rect y="248.712" style="fill:#5B3333;" width="800" height="5.104"/>
			<rect y="245.65" style="fill:#5B3333;" width="800" height="5.104"/>
		</g>
		<g>
			<rect y="284.948" style="fill:#5B3333;" width="800" height="5.104"/>
			<rect y="281.886" style="fill:#5B3333;" width="800" height="5.104"/>
		</g>
		<g>
			<rect y="321.695" style="fill:#5B3333;" width="800" height="5.104"/>
			<rect y="318.633" style="fill:#5B3333;" width="800" height="5.104"/>
		</g>
		<g>
			<rect y="361.504" style="fill:#5B3333;" width="800" height="5.104"/>
			<rect y="358.442" style="fill:#5B3333;" width="800" height="5.104"/>
		</g>
		<g>
			<rect y="398.251" style="fill:#5B3333;" width="800" height="5.104"/>
			<rect y="395.188" style="fill:#5B3333;" width="800" height="5.104"/>
		</g>
		<g>
			<rect y="398.251" style="fill:#5B3333;" width="800" height="5.104"/>
			<rect y="395.188" style="fill:#5B3333;" width="800" height="5.104"/>
		</g>
		<g>
			<rect y="434.997" style="fill:#5B3333;" width="800" height="5.104"/>
			<rect y="431.935" style="fill:#5B3333;" width="800" height="5.104"/>
		</g>
		<g>
			<rect y="474.806" style="fill:#5B3333;" width="800" height="5.104"/>
			<rect y="471.744" style="fill:#5B3333;" width="800" height="5.104"/>
		</g>
		<g>
			<rect y="511.553" style="fill:#5B3333;" width="800" height="5.104"/>
			<rect y="508.491" style="fill:#5B3333;" width="800" height="5.104"/>
		</g>
		<g>
			<rect x="0" y="548.299" style="fill:#5B3333;" width="800" height="5.104"/>
			<rect x="0" y="545.237" style="fill:#5B3333;" width="800" height="5.104"/>
		</g>
		<g>
			<rect x="0" y="585.046" style="fill:#5B3333;" width="800" height="5.104"/>
			<rect x="0" y="581.984" style="fill:#5B3333;" width="800" height="5.104"/>
		</g>
		<g>
			<rect x="0" y="624.855" style="fill:#5B3333;" width="800" height="5.104"/>
			<rect x="0" y="621.793" style="fill:#5B3333;" width="800" height="5.104"/>
		</g>
		<g>
			<rect x="0" y="661.602" style="fill:#5B3333;" width="800" height="5.104"/>
			<rect x="0" y="658.539" style="fill:#5B3333;" width="800" height="5.104"/>
		</g>
		<g>
			<rect x="0" y="661.602" style="fill:#5B3333;" width="800" height="5.104"/>
			<rect x="0" y="658.539" style="fill:#5B3333;" width="800" height="5.104"/>
		</g>
		<g>
			<rect x="0" y="698.348" style="fill:#5B3333;" width="800" height="5.104"/>
			<rect x="0" y="695.286" style="fill:#5B3333;" width="800" height="5.104"/>
		</g>
		<g>
			<rect x="0" y="738.157" style="fill:#5B3333;" width="800" height="5.104"/>
			<rect x="0" y="735.095" style="fill:#5B3333;" width="800" height="5.104"/>
		</g>
		<g>
			<rect x="0" y="774.904" style="fill:#5B3333;" width="800" height="5.104"/>
			<rect x="0" y="771.842" style="fill:#5B3333;" width="800" height="5.104"/>
		</g>
		<g>
			
				<rect x="338.12" y="396.975" transform="matrix(-1.836970e-16 1 -1 -1.836970e-16 1137.647 -338.5938)" style="fill:#5B3333;" width="800" height="5.104"/>
			
				<rect x="341.183" y="396.975" transform="matrix(-1.836970e-16 1 -1 -1.836970e-16 1140.7091 -341.6559)" style="fill:#5B3333;" width="800" height="5.104"/>
		</g>
		<g>
			
				<rect x="261.565" y="396.975" transform="matrix(-1.836970e-16 1 -1 -1.836970e-16 1061.0913 -262.0381)" style="fill:#5B3333;" width="800" height="5.104"/>
			
				<rect x="264.627" y="396.975" transform="matrix(-1.836970e-16 1 -1 -1.836970e-16 1064.1536 -265.1005)" style="fill:#5B3333;" width="800" height="5.104"/>
		</g>
		<g>
			
				<rect x="261.565" y="396.975" transform="matrix(-1.836970e-16 1 -1 -1.836970e-16 1061.0913 -262.0381)" style="fill:#5B3333;" width="800" height="5.104"/>
			
				<rect x="264.627" y="396.975" transform="matrix(-1.836970e-16 1 -1 -1.836970e-16 1064.1536 -265.1005)" style="fill:#5B3333;" width="800" height="5.104"/>
		</g>
		<g>
			
				<rect x="185.009" y="396.975" transform="matrix(-1.836970e-16 1 -1 -1.836970e-16 984.5358 -185.4827)" style="fill:#5B3333;" width="800" height="5.104"/>
			
				<rect x="188.071" y="396.975" transform="matrix(-1.836970e-16 1 -1 -1.836970e-16 987.598 -188.5448)" style="fill:#5B3333;" width="800" height="5.104"/>
		</g>
		<g>
			
				<rect x="112.026" y="396.975" transform="matrix(-1.836970e-16 1 -1 -1.836970e-16 911.5528 -112.4997)" style="fill:#5B3333;" width="800" height="5.104"/>
			
				<rect x="115.089" y="396.975" transform="matrix(-1.836970e-16 1 -1 -1.836970e-16 914.6151 -115.562)" style="fill:#5B3333;" width="800" height="5.104"/>
		</g>
		<g>
			
				<rect x="35.471" y="396.975" transform="matrix(-1.836970e-16 1 -1 -1.836970e-16 834.9973 -35.9442)" style="fill:#5B3333;" width="800" height="5.104"/>
			
				<rect x="38.533" y="396.975" transform="matrix(-1.836970e-16 1 -1 -1.836970e-16 838.0595 -39.0064)" style="fill:#5B3333;" width="800" height="5.104"/>
		</g>
		<g>
			
				<rect x="-38.023" y="396.975" transform="matrix(-1.836970e-16 1 -1 -1.836970e-16 761.5039 37.5492)" style="fill:#5B3333;" width="800" height="5.104"/>
			
				<rect x="-34.96" y="396.975" transform="matrix(-1.836970e-16 1 -1 -1.836970e-16 764.5662 34.4869)" style="fill:#5B3333;" width="800" height="5.104"/>
		</g>
		<g>
			
				<rect x="-114.578" y="396.975" transform="matrix(-1.836970e-16 1 -1 -1.836970e-16 684.9484 114.1047)" style="fill:#5B3333;" width="800" height="5.104"/>
			
				<rect x="-111.516" y="396.975" transform="matrix(-1.836970e-16 1 -1 -1.836970e-16 688.0106 111.0425)" style="fill:#5B3333;" width="800" height="5.104"/>
		</g>
		<g>
			
				<rect x="-188.071" y="396.975" transform="matrix(-1.836970e-16 1 -1 -1.836970e-16 611.4551 187.598)" style="fill:#5B3333;" width="800" height="5.104"/>
			
				<rect x="-185.009" y="396.975" transform="matrix(-1.836970e-16 1 -1 -1.836970e-16 614.5173 184.5358)" style="fill:#5B3333;" width="800" height="5.104"/>
		</g>
		<g>
			
				<rect x="-264.627" y="396.975" transform="matrix(-1.836970e-16 1 -1 -1.836970e-16 534.8995 264.1536)" style="fill:#5B3333;" width="800" height="5.104"/>
			
				<rect x="-261.565" y="396.975" transform="matrix(-1.836970e-16 1 -1 -1.836970e-16 537.9617 261.0914)" style="fill:#5B3333;" width="800" height="5.104"/>
		</g>
		<g>
			
				<rect x="-264.627" y="396.975" transform="matrix(-1.836970e-16 1 -1 -1.836970e-16 534.8995 264.1536)" style="fill:#5B3333;" width="800" height="5.104"/>
			
				<rect x="-261.565" y="396.975" transform="matrix(-1.836970e-16 1 -1 -1.836970e-16 537.9617 261.0914)" style="fill:#5B3333;" width="800" height="5.104"/>
		</g>
		<g>
			
				<rect x="-341.183" y="396.975" transform="matrix(-1.836970e-16 1 -1 -1.836970e-16 458.344 340.7091)" style="fill:#5B3333;" width="800" height="5.104"/>
			
				<rect x="-338.12" y="396.975" transform="matrix(-1.836970e-16 1 -1 -1.836970e-16 461.4062 337.6469)" style="fill:#5B3333;" width="800" height="5.104"/>
		</g>
	</g>
	<g>
		<polygon style="opacity:0.2;" points="56.266,307 0,581.984 0,800 132.821,799.527 99,307 		"/>
		<rect x="73" y="364.101" style="fill:#FF7262;" width="648" height="435.426"/>
		<rect x="56.266" y="282.442" style="fill:#F56756;" width="684.917" height="24.558"/>
		<rect x="56.266" y="282.442" style="fill:#F56756;" width="684.917" height="24.558"/>
		<rect x="56.266" y="292.424" style="fill:#D85248;" width="684.917" height="8.872"/>
		<rect x="56.266" y="291.221" style="fill:#FF8C83;" width="684.917" height="7"/>
		<rect x="73" y="392" style="fill:#D85248;" width="648" height="38.75"/>
		<rect x="56.266" y="392" style="fill:#F56756;" width="684.917" height="26"/>
		<rect x="73" y="307" style="fill:#D85248;" width="648" height="85"/>
		<rect x="73" y="307" style="fill:#BF3D3A;" width="648" height="12"/>
		<rect x="56.542" y="399.653" style="fill:#D85248;" width="684.917" height="8.872"/>
		<rect x="56.542" y="398.449" style="fill:#FF8C83;" width="684.917" height="7"/>
		<rect x="157.821" y="307" style="fill:#BF3D3A;" width="17.179" height="85"/>
		<g>
			<path style="fill:#BF3D3A;" d="M262.096,378.497v-41.162h6.472c3.754,0,6.5,0.243,8.237,0.728
				c2.465,0.653,4.427,1.866,5.884,3.638c1.457,1.772,2.185,3.862,2.185,6.268c0,1.567-0.331,2.99-0.993,4.268
				c-0.663,1.278-1.74,2.476-3.232,3.596c2.5,1.175,4.328,2.644,5.484,4.407c1.157,1.763,1.735,3.847,1.735,6.254
				c0,2.314-0.598,4.421-1.793,6.324c-1.195,1.903-2.736,3.326-4.622,4.268c-1.886,0.942-4.491,1.413-7.815,1.413H262.096z
				 M269.931,344.806v8.675h1.713c1.91,0,3.329-0.401,4.255-1.204c0.927-0.802,1.391-1.893,1.391-3.274
				c0-1.287-0.44-2.308-1.32-3.064c-0.88-0.755-2.219-1.133-4.017-1.133H269.931z M269.931,360.477v10.549h1.964
				c3.255,0,5.448-0.41,6.58-1.232c1.131-0.821,1.698-2.015,1.698-3.582c0-1.772-0.665-3.171-1.993-4.197s-3.535-1.539-6.622-1.539
				H269.931z"/>
			<path style="fill:#BF3D3A;" d="M314.772,336.3c5.824,0,10.832,2.108,15.022,6.324c4.191,4.216,6.287,9.356,6.287,15.418
				c0,6.007-2.067,11.091-6.203,15.251c-4.135,4.16-9.151,6.24-15.05,6.24c-6.179,0-11.313-2.136-15.4-6.408
				c-4.088-4.272-6.132-9.346-6.132-15.223c0-3.936,0.952-7.555,2.856-10.857c1.904-3.302,4.522-5.918,7.854-7.849
				C307.338,337.265,310.927,336.3,314.772,336.3z M314.689,343.967c-3.81,0-7.013,1.325-9.608,3.974
				c-2.596,2.649-3.894,6.016-3.894,10.102c0,4.552,1.634,8.152,4.902,10.801c2.539,2.071,5.453,3.106,8.739,3.106
				c3.716,0,6.881-1.343,9.496-4.029c2.614-2.686,3.922-5.997,3.922-9.934c0-3.917-1.317-7.233-3.95-9.948
				C321.663,345.324,318.46,343.967,314.689,343.967z"/>
			<path style="fill:#BF3D3A;" d="M343.188,337.335h7.863v26.618c0,2.293,0.2,3.915,0.602,4.865c0.401,0.951,1.063,1.71,1.987,2.279
				c0.923,0.568,2.038,0.852,3.344,0.852c1.38,0,2.57-0.316,3.568-0.951c0.998-0.633,1.688-1.439,2.071-2.418
				c0.382-0.978,0.574-2.847,0.574-5.607v-25.639h7.863v24.54c0,4.142-0.233,7.015-0.699,8.619
				c-0.467,1.604-1.357,3.153-2.672,4.645c-1.315,1.493-2.831,2.598-4.547,3.316c-1.716,0.718-3.712,1.077-5.988,1.077
				c-2.985,0-5.583-0.685-7.793-2.057c-2.211-1.371-3.792-3.087-4.743-5.148c-0.951-2.061-1.427-5.545-1.427-10.452V337.335z"/>
			<path style="fill:#BF3D3A;" d="M376.096,337.335h22.749v7.723h-7.499v33.439h-7.947v-33.439h-7.303V337.335z"/>
			<path style="fill:#BF3D3A;" d="M403.658,337.335h7.779v41.162h-7.779V337.335z"/>
			<path style="fill:#BF3D3A;" d="M455.564,372.482l7.165,9.261h-9.276l-3.64-4.683c-3.007,1.648-6.36,2.472-10.059,2.472
				c-6.183,0-11.319-2.131-15.41-6.393c-4.09-4.263-6.136-9.341-6.136-15.237c0-3.936,0.952-7.55,2.856-10.843
				c1.903-3.293,4.521-5.909,7.853-7.849c3.332-1.94,6.912-2.91,10.738-2.91c5.843,0,10.859,2.108,15.051,6.324
				c4.19,4.216,6.286,9.356,6.286,15.419C460.994,363.621,459.184,368.434,455.564,372.482z M450.669,366.155
				c1.66-2.462,2.49-5.186,2.49-8.17c0-3.898-1.317-7.21-3.95-9.933c-2.633-2.723-5.816-4.085-9.552-4.085
				c-3.847,0-7.068,1.325-9.664,3.974c-2.596,2.649-3.893,6.016-3.893,10.102c0,4.552,1.635,8.152,4.904,10.801
				c2.56,2.071,5.466,3.106,8.718,3.106c1.868,0,3.625-0.365,5.27-1.094l-7.371-9.483h9.348L450.669,366.155z"/>
			<path style="fill:#BF3D3A;" d="M468.102,337.335h7.863v26.618c0,2.293,0.2,3.915,0.602,4.865c0.401,0.951,1.064,1.71,1.987,2.279
				c0.923,0.568,2.037,0.852,3.344,0.852c1.38,0,2.569-0.316,3.567-0.951c0.998-0.633,1.689-1.439,2.071-2.418
				c0.382-0.978,0.573-2.847,0.573-5.607v-25.639h7.863v24.54c0,4.142-0.233,7.015-0.7,8.619c-0.466,1.604-1.357,3.153-2.672,4.645
				c-1.315,1.493-2.831,2.598-4.547,3.316c-1.717,0.718-3.713,1.077-5.988,1.077c-2.985,0-5.583-0.685-7.793-2.057
				c-2.211-1.371-3.792-3.087-4.743-5.148c-0.952-2.061-1.428-5.545-1.428-10.452V337.335z"/>
			<path style="fill:#BF3D3A;" d="M505.095,337.335h22.47v7.667h-14.692v7.443h14.692v7.527h-14.692v10.829h14.692v7.695h-22.47
				V337.335z"/>
		</g>
		
			<text transform="matrix(1 0 0 1 258.3943 377.4971)" style="fill:#FFC5AE; font-family:'CenturyGothic-Bold'; font-size:57.3079px;">BOUTIQUE</text>
		<rect x="611.859" y="307" style="fill:#BF3D3A;" width="17.179" height="85"/>
		<g>
			
				<rect x="579.275" y="335.408" transform="matrix(-1.836970e-16 1 -1 -1.836970e-16 976.7245 -281.351)" style="fill:#F56756;" width="99.525" height="24.558"/>
			
				<rect x="577.136" y="343.251" transform="matrix(-1.836970e-16 1 -1 -1.836970e-16 974.5849 -279.2114)" style="fill:#D85248;" width="99.525" height="8.872"/>
			
				<rect x="579.275" y="344.187" transform="matrix(-1.836970e-16 1 -1 -1.836970e-16 976.7244 -281.3509)" style="fill:#FF8C83;" width="99.525" height="7"/>
		</g>
		<g>
			
				<rect x="125.238" y="336.864" transform="matrix(-1.836970e-16 1 -1 -1.836970e-16 524.1436 174.1436)" style="fill:#F56756;" width="99.525" height="24.558"/>
			
				<rect x="123.098" y="344.707" transform="matrix(-1.836970e-16 1 -1 -1.836970e-16 522.004 176.2831)" style="fill:#D85248;" width="99.525" height="8.872"/>
			
				<rect x="125.238" y="345.644" transform="matrix(-1.836970e-16 1 -1 -1.836970e-16 524.1436 174.1436)" style="fill:#FF8C83;" width="99.525" height="7"/>
		</g>
		<g>
			
				<rect x="135.338" y="431.101" transform="matrix(-1 -1.224647e-16 1.224647e-16 -1 551.6957 1150.6755)" style="fill:#FF8C83;" width="281.021" height="288.474"/>
			<rect x="135.338" y="440.204" style="fill:#BF3D3A;" width="271.637" height="279.251"/>
			<rect x="144.721" y="440.204" style="fill:#FFC5AE;" width="262.254" height="269.796"/>
			<rect x="154.104" y="449.587" style="fill:#5B1818;" width="243.338" height="251.313"/>
			<rect x="154.104" y="449.587" style="opacity:0.1;fill:#93BFD8;" width="243.338" height="250.525"/>
			<rect x="154.104" y="468.602" style="opacity:0.1;fill:#93BFD8;" width="224.869" height="231.51"/>
		</g>
		<rect x="64.432" y="735.095" style="fill:#5B3333;" width="666.193" height="64.905"/>
		<rect x="56.542" y="722.575" style="fill:#3F1F1F;" width="684.131" height="15.521"/>
		<rect x="56.542" y="719.575" style="fill:#7C4A4A;" width="684.131" height="15.521"/>
		<polygon style="opacity:0.2;fill:#FFDC2E;" points="740.672,727.215 56.542,719.455 56.542,719.455 740.672,719.455 		"/>
		<g>
			<polygon style="fill:#FF8C83;" points="488.407,801 651.262,801 651.459,430.75 478.729,431.101 487.5,440.101 			"/>
			<rect x="487.5" y="438.5" style="fill:#FFC5AE;" width="155.398" height="362.5"/>
			<polygon style="opacity:0.3;fill:#050505;" points="478.729,801 632.859,801 632.859,447.588 496.883,447.588 478.729,431.101 
							"/>
			<polygon style="fill:#FFC5AE;" points="487.5,801 632.859,801 632.859,447.588 496.883,447.588 487.5,438.5 			"/>
			<rect x="496.883" y="447.588" style="fill:#5B1818;" width="135.976" height="353.412"/>
			<rect x="496.883" y="447.588" style="opacity:0.1;fill:#93BFD8;" width="135.976" height="353.412"/>
			<rect x="496.883" y="464.587" style="opacity:0.1;fill:#93BFD8;" width="117.197" height="336.413"/>
		</g>
		<rect x="492.333" y="646.333" style="fill:#FFC5AE;" width="144" height="154.667"/>
		<rect x="487.5" y="632.794" style="opacity:0.2;" width="18.5" height="45.206"/>
		<rect x="487.5" y="632.794" style="fill:#FFC5AE;" width="18.5" height="39.868"/>
		<rect x="496.75" y="632.794" style="fill:#FFDBCF;" width="9.25" height="39.868"/>
		<rect x="501.375" y="632.794" style="opacity:0.25;fill:#FFDC2E;" width="4.625" height="34.022"/>
		<rect x="496.883" y="488.304" style="opacity:0.2;" width="117.197" height="14.196"/>
		<rect x="488.5" y="488.304" style="fill:#FFC5AE;" width="153.817" height="9.088"/>
		
			<rect x="550.297" y="469.185" transform="matrix(-1.836970e-16 1 -1 -1.836970e-16 1038.6003 -86.2967)" style="opacity:0.2;" width="24.304" height="13.933"/>
		
			<rect x="536.903" y="464.88" transform="matrix(-1.836970e-16 1 -1 -1.836970e-16 1034.2948 -95.4473)" style="fill:#FFC5AE;" width="55.936" height="9.088"/>
		<rect x="506.699" y="666.816" style="fill:#E0806E;" width="117" height="117"/>
		<rect x="506.699" y="672.662" style="fill:#F4AB92;" width="110.967" height="111.153"/>
		<rect x="512.026" y="672.662" style="fill:#EA947D;" width="105.64" height="105.817"/>
		<rect x="517.64" y="672.662" style="fill:#FFDBCF;" width="100.026" height="100.194"/>
		<path style="opacity:0.2;fill:none;stroke:#281515;stroke-miterlimit:10;" d="M550.25,565.5c0,0-4.933-27.833,13.158-27.917
			C581.5,537.5,576.25,567,576.25,567"/>
		<path style="fill:none;stroke:#FFC5AE;stroke-miterlimit:10;" d="M552.25,564.5c0,0-4.933-27.833,13.158-27.917
			C583.5,536.5,578.25,566,578.25,566"/>
		<rect x="517.64" y="678" style="fill:#FFC5AE;" width="94.697" height="94.856"/>
		<path style="opacity:0.2;fill:#281515;" d="M570.075,537.583c0,3.682-2.985,6.667-6.667,6.667s-6.667-2.985-6.667-6.667
			s2.985-6.667,6.667-6.667S570.075,533.901,570.075,537.583z"/>
		<path style="opacity:0.2;fill:#281515;" d="M586.958,580.432H539.44c-1.652,0-2.991-1.339-2.991-2.991v-25.15
			c0-1.652,1.339-2.992,2.991-2.992h47.517c1.652,0,2.992,1.339,2.992,2.992v25.15C589.949,579.093,588.61,580.432,586.958,580.432z
			"/>
		<path style="fill:#EAA086;" d="M572.075,536.583c0,3.682-2.985,6.667-6.667,6.667s-6.667-2.985-6.667-6.667
			s2.985-6.667,6.667-6.667S572.075,532.901,572.075,536.583z"/>
		<path style="fill:#FFC5AE;" d="M572.075,535.657c0,3.17-2.57,5.74-5.74,5.74s-5.74-2.57-5.74-5.74s2.57-5.74,5.74-5.74
			S572.075,532.487,572.075,535.657z"/>
		<path style="fill:#FFD9CC;" d="M569.678,534.292c0,1.266-1.026,2.292-2.292,2.292c-1.266,0-2.292-1.026-2.292-2.292
			c0-1.266,1.026-2.292,2.292-2.292C568.652,532,569.678,533.026,569.678,534.292z"/>
		<path style="fill:#FFC5AE;" d="M588.958,579.432H541.44c-1.652,0-2.991-1.339-2.991-2.991v-25.15c0-1.652,1.339-2.992,2.991-2.992
			h47.517c1.652,0,2.992,1.339,2.992,2.992v25.15C591.949,578.093,590.61,579.432,588.958,579.432z"/>
		<path style="fill:#DD8872;" d="M587.581,577.065h-44.763c-0.905,0-1.638-0.734-1.638-1.638v-23.122
			c0-0.905,0.734-1.638,1.638-1.638h44.763c0.905,0,1.638,0.734,1.638,1.638v23.122
			C589.219,576.332,588.485,577.065,587.581,577.065z"/>
		<path style="fill:#EFA78E;" d="M586.008,577.065h-43.276c-0.858,0-1.553-0.695-1.553-1.553v-21.459
			c0-0.858,0.695-1.553,1.553-1.553h43.276c0.858,0,1.553,0.695,1.553,1.553v21.459C587.561,576.37,586.866,577.065,586.008,577.065
			z"/>
		
			<text transform="matrix(1 0 0 1 547.0009 569.7424)" style="fill:#D85248; font-family:'CenturyGothic-Bold'; font-size:12.7716px;">OPEN</text>
		<polygon style="opacity:0.2;fill:#FFDC2E;" points="217.543,282.442 721,508.491 721,281.886 		"/>
		<rect x="541.44" y="548.299" style="opacity:0.2;fill:#FFDC2E;" width="43.569" height="2.042"/>
		<g>
			<g>
				<path style="fill:#D85248;" d="M210.432,535.411c-1.782-1.408-2.555-3.74-2.071-5.959l5.843-28.552l6.878-2.342
					c0.491-0.374,0.779-0.956,0.779-1.573v-10.249c0-0.959-0.689-1.78-1.633-1.947l-10.016-1.768
					c-4.52-0.798-7.926-4.555-8.278-9.131l-0.16-2.078h-6.064h-6.064l-0.16,2.078c-0.352,4.576-3.758,8.334-8.278,9.131
					l-10.016,1.768c-0.945,0.167-1.633,0.987-1.633,1.947v10.249c0,0.617,0.288,1.199,0.779,1.573l7.069,1.973l5.652,28.92
					c0.484,2.219-0.29,4.551-2.072,5.959c-4.54,3.587-12.904,13.649-15.094,39.888c-1.449,17.359,12.399,32.202,29.818,32.202l0,0h0
					c17.419,0,31.267-14.842,29.818-32.201C223.337,549.059,214.973,538.998,210.432,535.411z"/>
				<rect x="194.193" y="596.889" style="fill:#D85248;" width="3.032" height="104.23"/>
				<path style="fill:#D85248;" d="M200.826,664.164c0,2.826-2.291,5.117-5.117,5.117c-2.826,0-5.117-2.291-5.117-5.117
					c0-2.826,2.291-5.117,5.117-5.117C198.535,659.048,200.826,661.339,200.826,664.164z"/>
				<circle style="fill:#D85248;" cx="195.709" cy="651.088" r="3.98"/>
				<circle style="fill:#D85248;" cx="195.709" cy="638.96" r="3.127"/>
			</g>
			<path style="fill:#FFC5AE;" d="M214.4,504.306l-0.196-3.406l2.434-16.743l-2.736-0.483l-3.004,15.669
				c-0.151,0.763-1.073,1.074-1.655,0.558l-2.386-2.115c-1.17-1.036-2.899-1.129-4.173-0.224l-3.989,2.835
				c-1.802,1.28-4.203,1.33-6.057,0.124l-4.67-3.038c-1.318-0.857-3.055-0.686-4.179,0.414l-1.906,1.863
				c-0.58,0.567-1.558,0.25-1.695-0.549l-2.672-15.537l-2.736,0.483l2.113,15.353l0.33,4.906l1.728,5.057l4.105,19.979h25.304
				l4.355-20.973L214.4,504.306z"/>
			<polygon style="fill:#EA881C;" points="183.057,529.452 178.952,537.255 213.232,537.255 208.361,529.452 			"/>
			<path style="fill:#FFC5AE;" d="M178.952,537.255c0,0-29.521,26.794-0.979,76.529c1.677,2.923,4.825,4.695,8.195,4.695h9.54
				l0.383-81.224H178.952z"/>
			<g>
				<path style="fill:#FFC5AE;" d="M213.465,613.744c28.482-47.405-0.233-76.489-0.233-76.489l-17.907,0l0.216,45.822h15.098
					L213.465,613.744z"/>
				<path style="fill:#FFC5AE;" d="M210.639,583.077h-15.098l0.167,35.402h1.04l6.226-23.702c0.275-1.046,1.78-0.987,1.971,0.078
					l4.248,23.624h1.423c1.009-1.601,1.955-3.179,2.848-4.735L210.639,583.077z"/>
			</g>
			<path style="fill:none;stroke:#EA881C;stroke-miterlimit:10;" d="M185.205,481.366c0,0,9.175,10.637,21.007,0"/>
			<path style="fill:none;stroke:#EA881C;stroke-miterlimit:10;" d="M197.655,489.976c0,2.145-0.7,3.883-1.563,3.883
				c-0.863,0-1.563-1.739-1.563-3.883c0-2.145,0.7-3.883,1.563-3.883C196.955,486.093,197.655,487.832,197.655,489.976z"/>
		</g>
		<g>
			<g>
				<path style="fill:#EA881C;" d="M251.936,679.306l-0.966-7.085c-0.334-2.448-0.532-4.917-0.484-7.387
					c0.068-3.486-0.501-9.352-5.052-9.732c-5.666-0.472-6.669,4.678-6.594,9.835c0.029,2.042-0.113,4.084-0.342,6.113l-0.83,7.352
					L251.936,679.306z"/>
				<rect x="237.035" y="678.403" style="fill:#FFC5AE;" width="15.534" height="5.238"/>
				<path style="fill:#9B5F29;" d="M239.654,679.306l0.967-9.067c0.224-2.1,0.385-4.211,0.359-6.323
					c-0.029-2.348,0.39-6.104,3.37-6.104c3.716,0,4.246,3.583,4.209,6.654c-0.017,1.38,0.085,2.759,0.233,4.131l1.158,10.709
					H239.654z"/>
				<g>
					<path style="fill:#FFAB57;" d="M239.968,678.874c0-2.67,2.164-4.834,4.834-4.834s4.834,2.164,4.834,4.834
						c0,0.148-0.031,0.287-0.044,0.432h2.948c0-4.274-3.465-7.738-7.738-7.738s-7.738,3.464-7.738,7.738h2.948
						C239.998,679.161,239.968,679.022,239.968,678.874z"/>
				</g>
			</g>
			<g>
				<path style="fill:#EA881C;" d="M257.907,679.155l0.966-7.085c0.334-2.448,0.532-4.917,0.484-7.387
					c-0.068-3.486,0.501-9.352,5.052-9.732c5.666-0.472,6.669,4.678,6.594,9.835c-0.03,2.042,0.113,4.084,0.342,6.113l0.83,7.352
					L257.907,679.155z"/>
				
					<rect x="257.275" y="678.252" transform="matrix(-1 -1.224647e-16 1.224647e-16 -1 530.0837 1361.7424)" style="fill:#FFC5AE;" width="15.533" height="5.238"/>
				<path style="fill:#9B5F29;" d="M270.19,679.155l-0.967-9.067c-0.224-2.1-0.385-4.211-0.359-6.323
					c0.029-2.348-0.39-6.104-3.37-6.104c-3.716,0-4.247,3.583-4.209,6.654c0.017,1.38-0.085,2.759-0.233,4.131l-1.158,10.709H270.19
					z"/>
				<g>
					<path style="fill:#FFAB57;" d="M269.876,678.723c0-2.67-2.164-4.834-4.834-4.834c-2.67,0-4.834,2.165-4.834,4.834
						c0,0.148,0.031,0.287,0.044,0.432h-2.948c0-4.274,3.465-7.738,7.738-7.738c4.274,0,7.738,3.465,7.738,7.738h-2.948
						C269.846,679.011,269.876,678.871,269.876,678.723z"/>
				</g>
			</g>
			<rect x="228.852" y="685.928" style="fill:#D85248;" width="52.139" height="15.379"/>
			<rect x="228.852" y="685.928" style="fill:#BF3D3A;" width="52.139" height="4.817"/>
			<rect x="227.046" y="683.52" style="fill:#FF7262;" width="55.752" height="4.817"/>
		</g>
		<g>
			<g>
				<g>
					<g>
						<path style="fill:#FFC5AE;" d="M338.164,679.266L338.164,679.266c0-2.695,2.03-4.88,4.535-4.88h0.827
							c1.63,0,3.102-1.047,3.741-2.661l4.997-12.628c0.085-0.216,0.129-0.448,0.129-0.683v-4.067c0-0.32,0.241-0.58,0.539-0.58
							h10.289v1.503c0,0.901,0.381,1.753,1.034,2.316l0.125,0.108c1.417,1.22,2.242,3.067,2.242,5.019v6.671l-8.39,4.88
							l-3.968,6.222L338.164,679.266z"/>
						<path style="fill:#FFFFFF;" d="M338.164,678.656l13.723,0.065c0.315,0.001,0.609-0.17,0.78-0.455l3.149-5.255
							c0.112-0.187,0.257-0.348,0.426-0.474l4.314-3.215c0.478-0.357,1.047-0.548,1.629-0.548h4.437v13.664h-5.329l0.103-8.194
							c0.004-0.338-0.355-0.532-0.605-0.327l-2.786,2.298l-1.361,3.05l0.002,0.048c0.061,1.706-1.208,3.124-2.794,3.124h-14.895
							c-0.438,0-0.794-0.382-0.794-0.854V678.656z"/>
						<path style="fill:#EA881C;" d="M338.164,679.266h14.033c0.37,0,0.713-0.203,0.911-0.539l3.111-5.274
							c0.207-0.35,0.481-0.656,0.807-0.898l3.53-2.623c0.48-0.357,1.049-0.548,1.633-0.548h4.433v13.664h-5.329l0.103-8.194
							c0.004-0.338-0.355-0.532-0.605-0.327l-1.726,1.043c-0.367,0.222-0.636,0.576-0.751,0.989l-0.904,3.24
							c-0.542,2.639-1.971,3.249-3.558,3.249h-14.895c-0.438,0-0.794-0.382-0.794-0.854V679.266z"/>
						<path style="fill:#EA881C;" d="M352.556,664.05l-1.507-0.441c-0.223-0.065-0.344-0.353-0.271-0.642l0.053-0.208
							c0.073-0.289,0.313-0.471,0.536-0.406l1.507,0.441c0.223,0.065,0.344,0.353,0.271,0.642l-0.052,0.208
							C353.019,663.934,352.779,664.116,352.556,664.05z"/>
						<path style="fill:#EA881C;" d="M353.745,660.887l-1.495-0.438c-0.221-0.065-0.341-0.352-0.268-0.641l0.053-0.208
							c0.073-0.289,0.312-0.471,0.533-0.407l1.495,0.438c0.221,0.065,0.341,0.352,0.268,0.641l-0.052,0.208
							C354.205,660.769,353.966,660.952,353.745,660.887z"/>
						<path style="fill:#EA881C;" d="M350.084,670.215l-1.377-0.406c-0.204-0.06-0.309-0.344-0.236-0.633l0.053-0.208
							c0.073-0.289,0.298-0.475,0.502-0.415l1.377,0.407c0.204,0.06,0.309,0.343,0.236,0.633l-0.053,0.208
							C350.512,670.09,350.288,670.275,350.084,670.215z"/>
						<path style="fill:#EA881C;" d="M351.279,667.172l-1.448-0.425c-0.214-0.063-0.328-0.349-0.255-0.638l0.053-0.208
							c0.073-0.289,0.306-0.473,0.52-0.41l1.448,0.425c0.214,0.063,0.328,0.349,0.255,0.638l-0.053,0.208
							C351.727,667.051,351.494,667.235,351.279,667.172z"/>
						<path style="fill:#EA881C;" d="M348.734,673.323l-1.383-0.408c-0.204-0.06-0.311-0.344-0.237-0.633l0.053-0.208
							c0.073-0.289,0.299-0.475,0.503-0.414l1.383,0.408c0.205,0.06,0.311,0.344,0.237,0.633l-0.053,0.208
							C349.164,673.198,348.939,673.383,348.734,673.323z"/>
					</g>
					<path style="opacity:0.2;" d="M364.38,657.694l-0.125-0.108c-0.654-0.563-1.034-1.415-1.034-2.316v-1.503h-10.289
						c-0.297,0-0.539,0.26-0.539,0.58v4.067c0,0.235-0.044,0.467-0.129,0.683l-0.103,0.261c-0.054,0.067-0.101,0.145-0.125,0.241
						l-0.052,0.206l-4.716,11.919c-0.639,1.614-2.111,2.661-3.741,2.661h-0.827c-2.31,0-4.196,1.866-4.478,4.27l-0.057,0v0.61v2.318
						v0.61c0,0.472,0.355,0.854,0.794,0.854h14.895c1.586,0,3.016-0.61,3.558-3.249l0.904-3.24c0.115-0.413,0.384-0.767,0.751-0.989
						l1.726-1.043c0.241-0.199,0.58-0.02,0.597,0.298l-0.096,7.612h0.008l-0.008,0.61h5.329v-0.61v-13.054v-0.61v-6.06
						C366.622,660.761,365.797,658.914,364.38,657.694z"/>
					<g>
						<path style="fill:#FFC5AE;" d="M345.389,679.266L345.389,679.266c0-2.695,2.03-4.88,4.535-4.88h0.827
							c1.63,0,3.102-1.047,3.74-2.661l4.997-12.628c0.085-0.216,0.13-0.448,0.13-0.683v-4.067c0-0.32,0.241-0.58,0.538-0.58h10.289
							v1.503c0,0.901,0.381,1.753,1.034,2.316l0.125,0.108c1.417,1.22,2.242,3.067,2.242,5.019v6.671l-8.39,4.88l-3.968,6.222
							L345.389,679.266z"/>
						<path style="fill:#FFFFFF;" d="M345.389,678.656l13.723,0.065c0.315,0.001,0.609-0.17,0.78-0.455l3.149-5.255
							c0.112-0.187,0.257-0.348,0.426-0.474l4.314-3.215c0.478-0.357,1.046-0.548,1.628-0.548h4.437v13.664h-5.329l0.103-8.194
							c0.004-0.338-0.355-0.532-0.605-0.327l-2.786,2.298l-1.361,3.05l0.002,0.048c0.061,1.706-1.208,3.124-2.794,3.124h-14.895
							c-0.438,0-0.794-0.382-0.794-0.854V678.656z"/>
						<path style="fill:#EA881C;" d="M345.389,679.266h14.033c0.369,0,0.713-0.203,0.911-0.539l3.111-5.274
							c0.207-0.35,0.481-0.656,0.807-0.898l3.531-2.623c0.48-0.357,1.049-0.548,1.633-0.548h4.433v13.664h-5.329l0.103-8.194
							c0.004-0.338-0.355-0.532-0.605-0.327l-1.726,1.043c-0.367,0.222-0.636,0.576-0.751,0.989l-0.904,3.24
							c-0.542,2.639-1.971,3.249-3.558,3.249h-14.895c-0.438,0-0.794-0.382-0.794-0.854V679.266z"/>
						<path style="fill:#EA881C;" d="M359.781,664.05l-1.507-0.441c-0.223-0.065-0.344-0.353-0.271-0.642l0.052-0.208
							c0.073-0.289,0.313-0.471,0.536-0.406l1.507,0.441c0.223,0.065,0.344,0.353,0.271,0.642l-0.053,0.208
							C360.244,663.934,360.004,664.116,359.781,664.05z"/>
						<path style="fill:#EA881C;" d="M360.97,660.887l-1.495-0.438c-0.221-0.065-0.341-0.352-0.268-0.641l0.052-0.208
							c0.073-0.289,0.312-0.471,0.533-0.407l1.495,0.438c0.221,0.065,0.341,0.352,0.268,0.641l-0.053,0.208
							C361.43,660.769,361.191,660.952,360.97,660.887z"/>
						<path style="fill:#EA881C;" d="M357.309,670.215l-1.377-0.406c-0.204-0.06-0.309-0.344-0.236-0.633l0.053-0.208
							c0.073-0.289,0.298-0.475,0.502-0.415l1.377,0.407c0.204,0.06,0.309,0.343,0.236,0.633l-0.053,0.208
							C357.737,670.09,357.512,670.275,357.309,670.215z"/>
						<path style="fill:#EA881C;" d="M358.504,667.172l-1.448-0.425c-0.214-0.063-0.328-0.349-0.255-0.638l0.053-0.208
							c0.073-0.289,0.306-0.473,0.52-0.41l1.448,0.425c0.214,0.063,0.328,0.349,0.255,0.638l-0.053,0.208
							C358.951,667.051,358.719,667.235,358.504,667.172z"/>
						<path style="fill:#EA881C;" d="M355.959,673.323l-1.383-0.408c-0.204-0.06-0.311-0.344-0.237-0.633l0.053-0.208
							c0.073-0.289,0.299-0.475,0.503-0.414l1.383,0.408c0.205,0.06,0.311,0.344,0.238,0.633l-0.053,0.208
							C356.389,673.198,356.163,673.383,355.959,673.323z"/>
					</g>
				</g>
				<rect x="330.001" y="685.704" style="fill:#D85248;" width="52.139" height="15.379"/>
			</g>
			<rect x="330.001" y="685.704" style="fill:#BF3D3A;" width="52.139" height="4.817"/>
			<rect x="328.195" y="683.296" style="fill:#FF7262;" width="55.752" height="4.817"/>
		</g>
		<g>
			<g>
				<path style="fill:#D85248;" d="M314.123,529.063l5.843-28.552l6.878-2.342c0.491-0.374,0.779-0.956,0.779-1.573v-10.249
					c0-0.959-0.689-1.78-1.633-1.947l-10.016-1.768c-4.52-0.798-7.926-4.555-8.278-9.131l-0.16-2.078h-6.064h-6.064l-0.16,2.078
					c-0.352,4.576-3.758,8.334-8.279,9.131l-10.016,1.768c-0.945,0.167-1.633,0.988-1.633,1.947v10.249
					c0,0.617,0.288,1.199,0.779,1.573l7.069,1.973l5.652,28.92c0.269,1.232,0.136,2.494-0.328,3.619h25.96
					C313.987,531.557,313.855,530.295,314.123,529.063z"/>
			</g>
			<rect x="299.955" y="595.538" style="fill:#D85248;" width="3.032" height="105.191"/>
			<path style="fill:#D85248;" d="M306.588,663.775c0,2.826-2.291,5.117-5.117,5.117s-5.117-2.291-5.117-5.117
				c0-2.826,2.291-5.117,5.117-5.117S306.588,660.949,306.588,663.775z"/>
			<circle style="fill:#D85248;" cx="301.471" cy="650.699" r="3.98"/>
			<circle style="fill:#D85248;" cx="301.471" cy="638.571" r="3.127"/>
			<g>
				<path style="fill:#FFC5AE;" d="M321.111,500.121l3.841-1.308v-14.596l-8.979-1.585c-1.72-0.304-3.275-1.04-4.565-2.082
					c-8.993,6.707-16.505,2.452-19.73-0.135c-1.32,1.11-2.921,1.902-4.71,2.218l-8.978,1.585v14.48l3.918,1.094
					c0.768,0.214,1.341,0.855,1.469,1.642l2.77,17.039h30.649l2.96-16.77C319.886,500.967,320.405,500.362,321.111,500.121z"/>
			</g>
			<path style="fill:#FFC5AE;" d="M288.491,532.681L288.491,532.681c-6.661,5.652-10.501,13.947-10.501,22.683v40.174h23.481
				v-62.857H288.491z"/>
			<path style="fill:#FFC5AE;" d="M314.451,532.681L314.451,532.681c6.661,5.652,10.501,13.947,10.501,22.683v40.174h-23.481
				v-62.857H314.451z"/>
			<path style="fill:#EAA992;" d="M294.318,532.681l-7.675,12.989c-1.124,1.903-1.717,4.072-1.717,6.282v33.23l2.244-33.215
				c0.109-1.608,0.479-3.187,1.096-4.676L294.318,532.681z"/>
			<path style="fill:#EAA992;" d="M308.522,532.681l7.675,12.989c1.124,1.903,1.717,4.072,1.717,6.282v33.23l-2.244-33.215
				c-0.109-1.608-0.479-3.187-1.095-4.676L308.522,532.681z"/>
			<path style="fill:#EAA992;" d="M285.888,502.053c0,0,6.502,4.532,13.005,0C298.893,502.053,294.318,510.766,285.888,502.053z"/>
			<path style="fill:#EAA992;" d="M315.992,502.053c0,0-6.502,4.532-13.005,0C302.987,502.053,307.563,510.766,315.992,502.053z"/>
			<polygon style="fill:#FFC5AE;" points="286.147,518.472 314.451,532.681 314.123,529.063 292.391,518.472 			"/>
			<polygon style="fill:#FFC5AE;" points="317.14,518.472 288.835,532.681 289.163,529.063 310.895,518.472 			"/>
		</g>
		<polygon style="opacity:0.07;fill:#FFDC2E;" points="237,449.587 154.104,700.9 397.442,700.112 314.717,449.587 		"/>
	</g>
	<g>
		<polygon style="opacity:0.2;fill:#FFDC2E;" points="316.473,80.253 316.473,72.973 316.473,0.473 316.204,0.473 316.204,0 
			115,0.473 269.931,112.031 328.439,114.896 328.439,112.031 328.439,111.896 328.439,104.284 328.439,86.807 328.439,82.267 
			328.439,80.253 		"/>
		<g>
			<polygon style="opacity:0.2;" points="316.204,82.267 316.204,0 66.854,0 54.62,82.267 54.62,114.896 328.439,114.896 
				328.439,82.267 			"/>
			<rect x="72.586" y="0.473" style="fill:#FF7262;" width="243.887" height="95.601"/>
			<rect x="82.171" y="0.473" style="fill:#663939;" width="224" height="72.5"/>
			<rect x="72.586" y="72.973" style="opacity:0.2;" width="243.887" height="23.101"/>
			<rect x="60.62" y="80.253" style="fill:#FF7262;" width="267.819" height="31.643"/>
			<rect x="60.62" y="80.253" style="fill:#FFA69F;" width="267.819" height="6.554"/>
			<rect x="60.62" y="104.284" style="fill:#EA594E;" width="267.819" height="7.747"/>
			<polygon style="fill:#7F4949;" points="195.529,0.473 306.171,72.973 306.171,0.473 			"/>
		</g>
	</g>
	<g>
		<g>
			<polygon style="opacity:0.2;" points="719.534,81.793 719.534,-0.473 470.184,-0.473 457.949,81.793 457.949,114.423 
				731.768,114.423 731.768,81.793 			"/>
			<rect x="475.915" style="fill:#FF7262;" width="243.887" height="95.601"/>
			<rect x="485.5" style="fill:#663939;" width="224" height="72.5"/>
			<rect x="475.915" y="72.5" style="opacity:0.2;" width="243.887" height="23.101"/>
			<rect x="463.949" y="79.78" style="fill:#FF7262;" width="267.819" height="31.643"/>
			<rect x="463.949" y="79.78" style="fill:#FFA69F;" width="267.819" height="6.554"/>
			<rect x="463.949" y="103.811" style="fill:#EA594E;" width="267.819" height="7.747"/>
			<polygon style="fill:#7F4949;" points="598.859,0 709.5,72.5 709.5,0 			"/>
		</g>
		<polygon style="opacity:0.2;fill:#FFDC2E;" points="720.291,81.149 720.291,73.869 720.291,1.369 720.023,1.369 720.023,0.896 
			485.5,0 631.334,112.031 732.257,115.792 732.257,112.927 732.257,112.792 732.257,105.18 732.257,87.703 732.257,83.163 
			732.257,81.149 		"/>
	</g>
</g>
<g id="DESIGNED_BY_FREEPIK">
	<g>
		<g>
			<path style="fill:#EA881C;" d="M283.379,776.756v-0.258c-0.348,0.398-0.691,0.725-1.031,0.973
				c-0.338,0.252-0.705,0.441-1.102,0.57c-0.395,0.133-0.826,0.195-1.295,0.195c-0.621,0-1.197-0.131-1.725-0.393
				c-0.529-0.264-0.986-0.639-1.373-1.127c-0.387-0.486-0.68-1.059-0.879-1.719c-0.199-0.658-0.299-1.371-0.299-2.137
				c0-1.621,0.396-2.885,1.188-3.791c0.791-0.904,1.834-1.357,3.125-1.357c0.746,0,1.377,0.129,1.891,0.385
				c0.512,0.256,1.012,0.652,1.5,1.182v-3.826c0-0.533,0.105-0.934,0.318-1.207c0.211-0.271,0.514-0.408,0.906-0.408
				c0.392,0,0.695,0.125,0.908,0.375c0.211,0.252,0.318,0.619,0.318,1.107v11.436c0,0.494-0.113,0.863-0.342,1.111
				c-0.228,0.246-0.523,0.369-0.885,0.369c-0.354,0-0.647-0.127-0.879-0.383C283.494,777.595,283.379,777.23,283.379,776.756z
				 M278.279,772.947c0,0.703,0.109,1.301,0.326,1.795c0.219,0.494,0.517,0.865,0.898,1.115c0.381,0.25,0.795,0.377,1.244,0.377
				c0.455,0,0.871-0.119,1.25-0.357c0.375-0.236,0.676-0.602,0.9-1.092c0.227-0.49,0.338-1.106,0.338-1.838
				c0-0.691-0.111-1.285-0.338-1.783c-0.225-0.496-0.527-0.875-0.91-1.139c-0.385-0.262-0.803-0.393-1.26-0.393
				c-0.475,0-0.899,0.135-1.272,0.402c-0.375,0.269-0.664,0.654-0.869,1.158C278.381,771.697,278.279,772.281,278.279,772.947z"/>
			<path style="fill:#EA881C;" d="M294.813,773.603h-5.07c0.006,0.588,0.123,1.107,0.355,1.557c0.23,0.449,0.539,0.789,0.922,1.016
				c0.383,0.229,0.805,0.342,1.267,0.342c0.311,0,0.594-0.035,0.85-0.107c0.258-0.074,0.506-0.188,0.746-0.344
				c0.24-0.154,0.463-0.32,0.664-0.498c0.203-0.178,0.465-0.42,0.789-0.723c0.133-0.113,0.322-0.172,0.57-0.172
				c0.266,0,0.481,0.074,0.645,0.221c0.164,0.146,0.248,0.35,0.248,0.617c0,0.234-0.092,0.506-0.275,0.82
				c-0.186,0.314-0.461,0.615-0.832,0.902c-0.371,0.289-0.834,0.527-1.397,0.717c-0.559,0.191-1.203,0.285-1.932,0.285
				c-1.666,0-2.961-0.475-3.885-1.424c-0.924-0.949-1.387-2.238-1.387-3.865c0-0.768,0.113-1.479,0.342-2.133
				c0.228-0.656,0.56-1.217,0.996-1.686c0.437-0.469,0.976-0.828,1.615-1.078c0.641-0.25,1.35-0.375,2.129-0.375
				c1.012,0,1.881,0.213,2.605,0.641c0.727,0.428,1.27,0.98,1.629,1.656c0.361,0.678,0.543,1.369,0.543,2.07
				c0,0.654-0.187,1.076-0.561,1.269C296.018,773.506,295.49,773.603,294.813,773.603z M289.742,772.131h4.701
				c-0.063-0.887-0.303-1.551-0.717-1.99c-0.416-0.441-0.961-0.66-1.639-0.66c-0.646,0-1.178,0.223-1.592,0.668
				C290.082,770.595,289.83,771.256,289.742,772.131z"/>
			<path style="fill:#EA881C;" d="M306.627,774.845c0,0.715-0.172,1.328-0.521,1.838c-0.348,0.51-0.863,0.896-1.543,1.16
				c-0.682,0.262-1.51,0.393-2.484,0.393c-0.93,0-1.729-0.143-2.393-0.428c-0.666-0.283-1.156-0.641-1.473-1.066
				c-0.316-0.43-0.475-0.857-0.475-1.289c0-0.285,0.1-0.527,0.305-0.73c0.201-0.201,0.459-0.303,0.77-0.303
				c0.271,0,0.478,0.066,0.625,0.199c0.146,0.133,0.285,0.32,0.418,0.559c0.266,0.465,0.584,0.807,0.955,1.037
				c0.371,0.227,0.875,0.342,1.516,0.342c0.52,0,0.945-0.117,1.277-0.348c0.332-0.232,0.498-0.496,0.498-0.793
				c0-0.457-0.172-0.787-0.518-0.996c-0.346-0.209-0.914-0.41-1.705-0.6c-0.893-0.221-1.619-0.455-2.18-0.699
				c-0.56-0.242-1.008-0.564-1.344-0.963c-0.336-0.398-0.504-0.891-0.504-1.473c0-0.518,0.154-1.01,0.465-1.473
				c0.31-0.461,0.77-0.83,1.375-1.105c0.603-0.275,1.332-0.414,2.188-0.414c0.672,0,1.275,0.07,1.809,0.211
				c0.535,0.137,0.982,0.326,1.34,0.561c0.358,0.232,0.631,0.492,0.816,0.777c0.187,0.285,0.279,0.563,0.279,0.836
				c0,0.297-0.1,0.541-0.297,0.732c-0.199,0.188-0.482,0.285-0.852,0.285c-0.266,0-0.492-0.076-0.678-0.23
				c-0.188-0.15-0.4-0.379-0.643-0.682c-0.195-0.254-0.426-0.457-0.691-0.609c-0.268-0.152-0.627-0.227-1.084-0.227
				c-0.469,0-0.857,0.098-1.168,0.299c-0.311,0.199-0.465,0.447-0.465,0.744c0,0.273,0.113,0.496,0.34,0.67
				c0.228,0.176,0.535,0.32,0.924,0.434c0.385,0.113,0.916,0.252,1.596,0.416c0.803,0.197,1.459,0.432,1.969,0.703
				c0.51,0.272,0.897,0.594,1.16,0.965C306.496,773.949,306.627,774.371,306.627,774.845z"/>
			<path style="fill:#EA881C;" d="M309.277,766.488c-0.361,0-0.67-0.111-0.926-0.332c-0.258-0.221-0.385-0.535-0.385-0.941
				c0-0.367,0.131-0.668,0.393-0.906c0.264-0.238,0.57-0.357,0.918-0.357c0.336,0,0.633,0.107,0.893,0.324
				c0.26,0.215,0.389,0.527,0.389,0.94c0,0.4-0.127,0.711-0.381,0.935C309.926,766.375,309.625,766.488,309.277,766.488z
				 M310.559,769.166v7.494c0,0.519-0.123,0.912-0.369,1.178c-0.248,0.266-0.56,0.398-0.941,0.398c-0.381,0-0.689-0.135-0.926-0.408
				c-0.238-0.271-0.355-0.662-0.355-1.168v-7.418c0-0.512,0.117-0.898,0.355-1.158c0.236-0.26,0.545-0.391,0.926-0.391
				c0.381,0,0.693,0.131,0.941,0.391C310.436,768.344,310.559,768.705,310.559,769.166z"/>
			<path style="fill:#EA881C;" d="M321.918,769.594v7.531c0,0.861-0.092,1.604-0.277,2.225c-0.182,0.619-0.477,1.133-0.883,1.537
				c-0.404,0.404-0.936,0.707-1.59,0.902c-0.654,0.197-1.471,0.295-2.445,0.295c-0.893,0-1.691-0.125-2.395-0.375
				c-0.701-0.252-1.242-0.574-1.623-0.969c-0.381-0.396-0.57-0.803-0.57-1.221c0-0.316,0.107-0.576,0.322-0.773
				c0.215-0.201,0.477-0.301,0.779-0.301c0.379,0,0.713,0.168,0.998,0.504c0.139,0.17,0.281,0.344,0.432,0.518
				c0.148,0.176,0.315,0.324,0.494,0.447c0.18,0.123,0.396,0.215,0.65,0.275c0.252,0.059,0.545,0.09,0.873,0.09
				c0.672,0,1.193-0.094,1.563-0.281c0.371-0.186,0.631-0.447,0.779-0.783c0.148-0.334,0.236-0.693,0.262-1.078
				c0.026-0.383,0.043-0.998,0.057-1.848c-0.4,0.559-0.859,0.982-1.383,1.273c-0.522,0.291-1.145,0.438-1.865,0.438
				c-0.867,0-1.625-0.223-2.276-0.666c-0.648-0.443-1.148-1.063-1.496-1.861c-0.348-0.799-0.521-1.719-0.521-2.764
				c0-0.777,0.105-1.482,0.318-2.107c0.213-0.629,0.514-1.156,0.906-1.588c0.393-0.43,0.846-0.754,1.358-0.973
				c0.514-0.219,1.076-0.328,1.691-0.328c0.734,0,1.371,0.143,1.91,0.422c0.537,0.283,1.037,0.725,1.5,1.326v-0.352
				c0-0.449,0.109-0.797,0.332-1.045c0.223-0.246,0.508-0.371,0.855-0.371c0.5,0,0.832,0.164,0.996,0.49
				C321.836,768.51,321.918,768.98,321.918,769.594z M314.404,772.881c0,1.051,0.23,1.846,0.689,2.383
				c0.459,0.539,1.053,0.809,1.781,0.809c0.43,0,0.836-0.117,1.219-0.348c0.385-0.23,0.695-0.58,0.937-1.045
				c0.238-0.465,0.359-1.029,0.359-1.695c0-1.057-0.232-1.881-0.697-2.469c-0.467-0.588-1.078-0.883-1.838-0.883
				c-0.742,0-1.336,0.281-1.781,0.846C314.627,771.041,314.404,771.841,314.404,772.881z"/>
			<path style="fill:#EA881C;" d="M326.039,769.129v0.313c0.455-0.602,0.953-1.043,1.496-1.324c0.541-0.281,1.162-0.424,1.865-0.424
				c0.684,0,1.295,0.15,1.834,0.447c0.537,0.299,0.941,0.719,1.205,1.262c0.172,0.318,0.283,0.66,0.332,1.027
				c0.051,0.367,0.078,0.836,0.078,1.406v4.824c0,0.519-0.119,0.912-0.357,1.178c-0.236,0.266-0.545,0.398-0.926,0.398
				c-0.387,0-0.699-0.135-0.94-0.408c-0.242-0.271-0.361-0.662-0.361-1.168v-4.322c0-0.854-0.119-1.508-0.357-1.961
				c-0.236-0.451-0.709-0.68-1.42-0.68c-0.461,0-0.883,0.139-1.262,0.414c-0.381,0.275-0.66,0.654-0.836,1.135
				c-0.127,0.387-0.191,1.107-0.191,2.166v3.248c0,0.525-0.121,0.92-0.365,1.184c-0.242,0.262-0.559,0.393-0.943,0.393
				c-0.375,0-0.682-0.135-0.922-0.408c-0.24-0.271-0.361-0.662-0.361-1.168v-7.494c0-0.494,0.107-0.863,0.322-1.107
				c0.215-0.242,0.51-0.365,0.883-0.365c0.228,0,0.435,0.055,0.619,0.162c0.182,0.109,0.33,0.269,0.441,0.484
				C325.984,768.554,326.039,768.818,326.039,769.129z"/>
			<path style="fill:#EA881C;" d="M341.813,773.603h-5.07c0.006,0.588,0.125,1.107,0.355,1.557c0.232,0.449,0.539,0.789,0.922,1.016
				c0.383,0.229,0.805,0.342,1.267,0.342c0.311,0,0.594-0.035,0.852-0.107c0.254-0.074,0.504-0.188,0.744-0.344
				c0.24-0.154,0.461-0.32,0.666-0.498c0.201-0.178,0.465-0.42,0.787-0.723c0.133-0.113,0.322-0.172,0.57-0.172
				c0.266,0,0.481,0.074,0.647,0.221c0.164,0.146,0.246,0.35,0.246,0.617c0,0.234-0.092,0.506-0.275,0.82
				c-0.184,0.314-0.461,0.615-0.832,0.902c-0.371,0.289-0.834,0.527-1.395,0.717c-0.561,0.191-1.205,0.285-1.934,0.285
				c-1.666,0-2.961-0.475-3.885-1.424c-0.924-0.949-1.387-2.238-1.387-3.865c0-0.768,0.113-1.479,0.342-2.133
				c0.228-0.656,0.56-1.217,0.998-1.686c0.436-0.469,0.975-0.828,1.613-1.078c0.641-0.25,1.35-0.375,2.129-0.375
				c1.012,0,1.881,0.213,2.605,0.641c0.727,0.428,1.27,0.98,1.631,1.656c0.359,0.678,0.541,1.369,0.541,2.07
				c0,0.654-0.187,1.076-0.561,1.269C343.018,773.506,342.492,773.603,341.813,773.603z M336.742,772.131h4.701
				c-0.063-0.887-0.303-1.551-0.717-1.99c-0.416-0.441-0.961-0.66-1.639-0.66c-0.646,0-1.178,0.223-1.592,0.668
				C337.082,770.595,336.83,771.256,336.742,772.131z"/>
			<path style="fill:#EA881C;" d="M352.383,776.756v-0.258c-0.348,0.398-0.691,0.725-1.029,0.973
				c-0.34,0.252-0.707,0.441-1.102,0.57c-0.396,0.133-0.828,0.195-1.297,0.195c-0.621,0-1.195-0.131-1.724-0.393
				c-0.527-0.264-0.987-0.639-1.371-1.127c-0.387-0.486-0.68-1.059-0.879-1.719c-0.199-0.658-0.299-1.371-0.299-2.137
				c0-1.621,0.395-2.885,1.186-3.791c0.793-0.904,1.834-1.357,3.125-1.357c0.748,0,1.379,0.129,1.891,0.385
				c0.514,0.256,1.014,0.652,1.5,1.182v-3.826c0-0.533,0.107-0.934,0.318-1.207c0.213-0.271,0.516-0.408,0.908-0.408
				c0.392,0,0.693,0.125,0.906,0.375c0.213,0.252,0.318,0.619,0.318,1.107v11.436c0,0.494-0.113,0.863-0.342,1.111
				c-0.228,0.246-0.521,0.369-0.883,0.369c-0.355,0-0.649-0.127-0.879-0.383C352.498,777.595,352.383,777.23,352.383,776.756z
				 M347.283,772.947c0,0.703,0.109,1.301,0.328,1.795c0.217,0.494,0.518,0.865,0.898,1.115c0.379,0.25,0.793,0.377,1.242,0.377
				c0.457,0,0.873-0.119,1.25-0.357c0.377-0.236,0.678-0.602,0.902-1.092c0.225-0.49,0.336-1.106,0.336-1.838
				c0-0.691-0.111-1.285-0.336-1.783c-0.225-0.496-0.529-0.875-0.912-1.139c-0.385-0.262-0.803-0.393-1.26-0.393
				c-0.473,0-0.898,0.135-1.272,0.402c-0.373,0.269-0.664,0.654-0.869,1.158C347.385,771.697,347.283,772.281,347.283,772.947z"/>
			<path style="fill:#EA881C;" d="M362.981,765.32v3.959c0.488-0.506,0.984-0.894,1.492-1.162c0.506-0.269,1.133-0.404,1.881-0.404
				c0.861,0,1.615,0.205,2.266,0.611c0.648,0.41,1.151,1.002,1.51,1.777c0.357,0.775,0.537,1.695,0.537,2.76
				c0,0.785-0.1,1.504-0.299,2.16c-0.201,0.656-0.49,1.225-0.869,1.705c-0.381,0.48-0.842,0.853-1.383,1.117
				c-0.541,0.262-1.139,0.393-1.791,0.393c-0.398,0-0.773-0.047-1.125-0.143c-0.352-0.094-0.65-0.219-0.898-0.375
				c-0.246-0.154-0.457-0.315-0.631-0.479c-0.174-0.164-0.404-0.412-0.689-0.742v0.258c0,0.486-0.117,0.855-0.352,1.107
				c-0.232,0.25-0.531,0.373-0.893,0.373c-0.367,0-0.66-0.123-0.877-0.373c-0.219-0.252-0.328-0.621-0.328-1.107v-11.322
				c0-0.525,0.106-0.924,0.316-1.191c0.213-0.269,0.51-0.404,0.889-0.404c0.4,0,0.707,0.129,0.922,0.385
				C362.873,764.48,362.981,764.844,362.981,765.32z M363.106,773.023c0,1.031,0.234,1.824,0.707,2.377
				c0.471,0.555,1.09,0.834,1.857,0.834c0.65,0,1.213-0.283,1.686-0.852c0.471-0.566,0.707-1.379,0.707-2.435
				c0-0.684-0.098-1.273-0.295-1.768c-0.195-0.494-0.475-0.875-0.834-1.144c-0.361-0.268-0.783-0.402-1.264-0.402
				c-0.494,0-0.935,0.135-1.32,0.402c-0.387,0.269-0.691,0.658-0.912,1.168C363.215,771.713,363.106,772.32,363.106,773.023z"/>
			<path style="fill:#EA881C;" d="M374.027,778.56l0.237-0.58l-3.192-8.035c-0.195-0.461-0.295-0.799-0.295-1.008
				c0-0.221,0.059-0.426,0.172-0.615c0.115-0.191,0.272-0.344,0.471-0.457c0.199-0.115,0.406-0.172,0.621-0.172
				c0.373,0,0.656,0.119,0.846,0.357c0.191,0.236,0.357,0.576,0.504,1.02l2.193,6.383l2.08-5.936
				c0.164-0.48,0.315-0.857,0.447-1.131c0.133-0.271,0.273-0.455,0.422-0.549c0.148-0.096,0.359-0.144,0.633-0.144
				c0.197,0,0.385,0.053,0.565,0.158c0.18,0.103,0.32,0.244,0.418,0.422c0.098,0.178,0.149,0.363,0.149,0.56
				c-0.027,0.119-0.066,0.291-0.125,0.514c-0.057,0.221-0.127,0.447-0.209,0.674l-3.381,8.852c-0.291,0.779-0.576,1.389-0.855,1.832
				c-0.279,0.443-0.647,0.785-1.105,1.022c-0.461,0.238-1.078,0.357-1.857,0.357c-0.76,0-1.33-0.082-1.709-0.246
				c-0.381-0.166-0.57-0.467-0.57-0.904c0-0.297,0.09-0.527,0.271-0.688c0.18-0.162,0.447-0.244,0.801-0.244
				c0.141,0,0.277,0.019,0.41,0.059c0.164,0.037,0.307,0.057,0.426,0.057c0.297,0,0.533-0.043,0.703-0.133
				c0.172-0.088,0.324-0.242,0.461-0.461C373.693,779.306,373.85,778.984,374.027,778.56z"/>
		</g>
		<g>
			<path style="fill:#EA881C;" d="M411.59,767.918h0.619v-0.777c0-0.814,0.1-1.457,0.307-1.938c0.203-0.479,0.555-0.826,1.047-1.045
				c0.49-0.217,1.162-0.326,2.015-0.326c1.52,0,2.273,0.367,2.273,1.113c0,0.238-0.08,0.445-0.24,0.615
				c-0.154,0.17-0.344,0.256-0.559,0.256c-0.1,0-0.277-0.018-0.527-0.059c-0.237-0.033-0.451-0.057-0.623-0.057
				c-0.467,0-0.766,0.141-0.904,0.416c-0.127,0.275-0.195,0.668-0.195,1.184v0.617h0.633c0.99,0,1.48,0.297,1.48,0.896
				c0,0.418-0.127,0.689-0.393,0.805c-0.262,0.113-0.623,0.17-1.088,0.17h-0.633v6.871c0,0.512-0.121,0.9-0.369,1.168
				c-0.242,0.273-0.555,0.406-0.943,0.406c-0.367,0-0.67-0.133-0.918-0.406c-0.244-0.268-0.363-0.656-0.363-1.168v-6.871h-0.715
				c-0.388,0-0.681-0.084-0.892-0.262c-0.209-0.17-0.315-0.398-0.315-0.678C410.287,768.226,410.721,767.918,411.59,767.918"/>
			<path style="fill:#EA881C;" d="M420.08,774.492v2.168c0,0.523-0.133,0.92-0.375,1.18c-0.246,0.266-0.559,0.394-0.937,0.394
				c-0.381,0-0.688-0.131-0.926-0.4c-0.236-0.264-0.361-0.656-0.361-1.174v-7.223c0-1.166,0.42-1.748,1.262-1.748
				c0.434,0,0.742,0.135,0.934,0.408c0.189,0.273,0.295,0.674,0.316,1.207c0.309-0.533,0.625-0.934,0.949-1.207
				c0.332-0.273,0.762-0.408,1.309-0.408c0.549,0,1.072,0.135,1.586,0.408c0.516,0.273,0.772,0.637,0.772,1.084
				c0,0.314-0.111,0.58-0.326,0.781c-0.221,0.209-0.455,0.313-0.707,0.313c-0.1,0-0.33-0.063-0.691-0.18
				c-0.365-0.113-0.69-0.174-0.963-0.174c-0.381,0-0.693,0.104-0.932,0.299c-0.242,0.205-0.432,0.496-0.564,0.887
				c-0.129,0.395-0.219,0.865-0.273,1.404C420.101,773.052,420.08,773.715,420.08,774.492"/>
			<path style="fill:#EA881C;" d="M432,773.599h-5.074c0.01,0.588,0.125,1.111,0.355,1.559c0.234,0.447,0.539,0.787,0.924,1.018
				c0.385,0.227,0.805,0.34,1.27,0.34c0.31,0,0.592-0.033,0.85-0.111c0.254-0.07,0.504-0.185,0.744-0.342
				c0.242-0.152,0.461-0.318,0.664-0.5c0.203-0.174,0.467-0.416,0.791-0.719c0.135-0.113,0.324-0.174,0.568-0.174
				c0.268,0,0.48,0.074,0.648,0.223c0.166,0.147,0.244,0.35,0.244,0.617c0,0.234-0.09,0.508-0.268,0.818
				c-0.188,0.318-0.463,0.617-0.836,0.906c-0.375,0.285-0.84,0.527-1.398,0.715c-0.559,0.19-1.205,0.285-1.932,0.285
				c-1.67,0-2.963-0.473-3.887-1.422c-0.924-0.951-1.391-2.242-1.391-3.867c0-0.768,0.117-1.479,0.348-2.135
				c0.225-0.658,0.557-1.217,0.998-1.688c0.436-0.471,0.971-0.828,1.613-1.078c0.637-0.25,1.346-0.375,2.127-0.375
				c1.012,0,1.881,0.215,2.607,0.646c0.723,0.422,1.273,0.977,1.629,1.654c0.361,0.68,0.541,1.367,0.541,2.074
				c0,0.648-0.188,1.07-0.561,1.266C433.203,773.504,432.678,773.599,432,773.599 M426.926,772.125h4.701
				c-0.062-0.885-0.297-1.549-0.713-1.986c-0.418-0.441-0.959-0.66-1.641-0.66c-0.647,0-1.178,0.221-1.592,0.67
				C427.268,770.594,427.014,771.252,426.926,772.125"/>
			<path style="fill:#EA881C;" d="M442.787,773.599h-5.072c0.006,0.588,0.125,1.111,0.353,1.559
				c0.233,0.447,0.539,0.787,0.922,1.018c0.383,0.227,0.805,0.34,1.272,0.34c0.307,0,0.592-0.033,0.844-0.111
				c0.26-0.07,0.506-0.185,0.75-0.342c0.242-0.152,0.461-0.318,0.664-0.5c0.199-0.174,0.465-0.416,0.789-0.719
				c0.135-0.113,0.326-0.174,0.568-0.174c0.268,0,0.483,0.074,0.65,0.223c0.164,0.147,0.24,0.35,0.24,0.617
				c0,0.234-0.088,0.508-0.274,0.818c-0.178,0.318-0.455,0.617-0.83,0.906c-0.371,0.285-0.84,0.527-1.396,0.715
				c-0.557,0.19-1.207,0.285-1.934,0.285c-1.668,0-2.959-0.473-3.887-1.422c-0.924-0.951-1.388-2.242-1.388-3.867
				c0-0.768,0.115-1.479,0.348-2.135c0.227-0.658,0.559-1.217,0.996-1.688c0.436-0.471,0.973-0.828,1.613-1.078
				c0.639-0.25,1.352-0.375,2.129-0.375c1.01,0,1.879,0.215,2.613,0.646c0.721,0.422,1.266,0.977,1.621,1.654
				c0.359,0.68,0.545,1.367,0.545,2.074c0,0.648-0.191,1.07-0.561,1.266C443.988,773.504,443.463,773.599,442.787,773.599
				 M437.715,772.125h4.701c-0.065-0.885-0.305-1.549-0.715-1.986c-0.422-0.441-0.963-0.66-1.642-0.66
				c-0.647,0-1.176,0.221-1.594,0.67C438.053,770.594,437.799,771.252,437.715,772.125"/>
			<path style="fill:#EA881C;" d="M448.467,769.148v0.31c0.486-0.602,0.994-1.043,1.525-1.324c0.517-0.285,1.117-0.428,1.781-0.428
				c0.795,0,1.535,0.209,2.207,0.617c0.672,0.414,1.199,1.016,1.59,1.807c0.389,0.795,0.586,1.73,0.586,2.814
				c0,0.795-0.113,1.531-0.336,2.201c-0.225,0.668-0.537,1.227-0.93,1.68c-0.393,0.449-0.856,0.801-1.389,1.045
				c-0.543,0.242-1.111,0.363-1.728,0.363c-0.738,0-1.363-0.148-1.865-0.447c-0.502-0.291-0.982-0.732-1.441-1.305v3.893
				c0,1.135-0.416,1.709-1.244,1.709c-0.49,0-0.809-0.146-0.971-0.439c-0.152-0.299-0.234-0.723-0.234-1.291V769.16
				c0-0.494,0.107-0.859,0.32-1.107c0.215-0.238,0.512-0.363,0.885-0.363c0.369,0,0.666,0.125,0.896,0.373
				C448.353,768.316,448.467,768.674,448.467,769.148 M453.551,772.916c0-0.685-0.106-1.273-0.315-1.764
				c-0.209-0.492-0.498-0.867-0.865-1.127c-0.367-0.264-0.783-0.396-1.232-0.396c-0.715,0-1.318,0.283-1.809,0.844
				c-0.492,0.566-0.74,1.394-0.74,2.492c0,1.027,0.244,1.834,0.736,2.406c0.486,0.574,1.086,0.859,1.813,0.859
				c0.428,0,0.83-0.127,1.197-0.373c0.371-0.252,0.664-0.627,0.883-1.127C453.439,774.228,453.551,773.623,453.551,772.916"/>
			<path style="fill:#EA881C;" d="M458.768,766.482c-0.363,0-0.67-0.115-0.924-0.336c-0.26-0.223-0.387-0.531-0.387-0.935
				c0-0.369,0.131-0.67,0.397-0.91c0.262-0.234,0.566-0.355,0.914-0.355c0.34,0,0.635,0.105,0.892,0.318
				c0.26,0.219,0.391,0.535,0.391,0.947c0,0.398-0.127,0.711-0.377,0.935C459.42,766.367,459.119,766.482,458.768,766.482
				 M460.051,769.16v7.502c0,0.516-0.123,0.908-0.369,1.172c-0.25,0.27-0.561,0.4-0.941,0.4c-0.381,0-0.685-0.133-0.928-0.406
				c-0.234-0.275-0.355-0.664-0.355-1.166v-7.428c0-0.51,0.121-0.894,0.355-1.154c0.242-0.264,0.547-0.391,0.928-0.391
				c0.381,0,0.691,0.127,0.941,0.391C459.928,768.34,460.051,768.703,460.051,769.16"/>
			<path style="fill:#EA881C;" d="M468.41,777.05l-2.283-3.766l-1.408,1.328v2.066c0,0.498-0.133,0.881-0.397,1.148
				c-0.258,0.273-0.566,0.406-0.906,0.406c-0.398,0-0.715-0.131-0.941-0.4c-0.227-0.264-0.344-0.656-0.344-1.174v-11.063
				c0-0.574,0.115-1.012,0.332-1.315c0.223-0.305,0.545-0.451,0.953-0.451c0.398,0,0.713,0.137,0.949,0.41
				c0.234,0.272,0.354,0.674,0.354,1.203v6.293l2.916-3.063c0.361-0.377,0.633-0.641,0.826-0.779c0.19-0.139,0.42-0.207,0.69-0.207
				c0.326,0,0.594,0.104,0.816,0.309c0.211,0.205,0.32,0.465,0.32,0.773c0,0.379-0.353,0.889-1.055,1.522l-1.377,1.262l2.658,4.184
				c0.193,0.313,0.34,0.543,0.424,0.705c0.084,0.16,0.131,0.32,0.131,0.463c0,0.412-0.115,0.734-0.342,0.975
				c-0.225,0.236-0.523,0.353-0.885,0.353c-0.316,0-0.565-0.08-0.734-0.256C468.937,777.806,468.701,777.496,468.41,777.05"/>
			<path style="fill:#EA881C;" d="M474.047,778.234c-0.393,0-0.729-0.125-1.014-0.381c-0.285-0.248-0.43-0.605-0.43-1.064
				c0-0.385,0.139-0.719,0.41-0.994c0.275-0.279,0.607-0.42,1.008-0.42c0.398,0,0.736,0.141,1.023,0.412
				c0.279,0.275,0.422,0.613,0.422,1.002c0,0.453-0.143,0.809-0.422,1.06C474.758,778.109,474.426,778.234,474.047,778.234"/>
			<path style="fill:#EA881C;" d="M486.945,775.025c0,0.32-0.098,0.668-0.291,1.033c-0.191,0.371-0.488,0.719-0.887,1.051
				c-0.395,0.332-0.891,0.602-1.494,0.803c-0.602,0.203-1.281,0.307-2.031,0.307c-1.605,0-2.858-0.469-3.758-1.4
				c-0.895-0.936-1.346-2.19-1.346-3.76c0-1.068,0.205-2.006,0.619-2.824c0.408-0.814,1.004-1.447,1.781-1.894
				c0.779-0.447,1.717-0.67,2.795-0.67c0.674,0,1.287,0.098,1.852,0.295c0.561,0.195,1.033,0.451,1.426,0.76
				c0.387,0.315,0.686,0.643,0.889,0.992c0.207,0.352,0.309,0.68,0.309,0.986c0,0.309-0.113,0.572-0.344,0.787
				c-0.234,0.215-0.516,0.324-0.838,0.324c-0.219,0-0.398-0.057-0.541-0.166c-0.144-0.111-0.305-0.289-0.478-0.541
				c-0.319-0.479-0.647-0.842-0.996-1.08c-0.344-0.242-0.781-0.361-1.314-0.361c-0.762,0-1.383,0.297-1.854,0.896
				c-0.467,0.596-0.703,1.42-0.703,2.455c0,0.488,0.063,0.94,0.184,1.348c0.117,0.406,0.291,0.756,0.519,1.043
				c0.231,0.287,0.504,0.506,0.826,0.654c0.324,0.154,0.682,0.227,1.065,0.227c0.521,0,0.967-0.121,1.336-0.361
				c0.377-0.24,0.703-0.607,0.986-1.102c0.158-0.291,0.328-0.518,0.51-0.684c0.182-0.164,0.408-0.25,0.676-0.25
				c0.316,0,0.58,0.123,0.785,0.363C486.838,774.496,486.945,774.754,486.945,775.025"/>
			<path style="fill:#EA881C;" d="M498.135,772.965c0,0.769-0.121,1.484-0.355,2.139c-0.246,0.652-0.592,1.213-1.049,1.678
				c-0.455,0.469-1.002,0.828-1.633,1.08c-0.639,0.248-1.35,0.375-2.139,0.375c-0.785,0-1.492-0.127-2.121-0.383
				c-0.623-0.248-1.17-0.613-1.625-1.082c-0.461-0.477-0.809-1.033-1.053-1.676c-0.228-0.644-0.35-1.355-0.35-2.131
				c0-0.787,0.123-1.506,0.357-2.158c0.242-0.654,0.59-1.213,1.039-1.674c0.451-0.461,0.994-0.816,1.631-1.07
				c0.645-0.248,1.35-0.373,2.121-0.373c0.785,0,1.498,0.125,2.139,0.381c0.639,0.252,1.184,0.615,1.645,1.08
				c0.457,0.475,0.803,1.029,1.039,1.672C498.016,771.472,498.135,772.181,498.135,772.965 M495.531,772.965
				c0-1.059-0.234-1.881-0.697-2.469c-0.463-0.596-1.09-0.889-1.875-0.889c-0.508,0-0.955,0.133-1.342,0.395
				c-0.387,0.262-0.682,0.648-0.891,1.164c-0.209,0.514-0.314,1.113-0.314,1.799c0,0.678,0.102,1.268,0.309,1.773
				c0.209,0.51,0.502,0.897,0.887,1.166c0.385,0.266,0.834,0.404,1.352,0.404c0.785,0,1.412-0.297,1.875-0.893
				C495.297,774.826,495.531,774.006,495.531,772.965"/>
			<path style="fill:#EA881C;" d="M508.027,773.154v3.447c0,0.547-0.121,0.951-0.369,1.227c-0.25,0.273-0.572,0.408-0.978,0.408
				c-0.393,0-0.713-0.135-0.951-0.408c-0.246-0.275-0.371-0.68-0.371-1.227v-4.131c0-0.654-0.022-1.162-0.065-1.525
				c-0.045-0.354-0.168-0.654-0.361-0.883c-0.197-0.234-0.51-0.352-0.932-0.352c-0.849,0-1.406,0.291-1.676,0.881
				c-0.268,0.576-0.406,1.414-0.406,2.508v3.502c0,0.537-0.123,0.945-0.361,1.223c-0.25,0.273-0.568,0.412-0.965,0.412
				c-0.397,0-0.717-0.139-0.967-0.412c-0.252-0.277-0.377-0.685-0.377-1.223v-7.42c0-0.488,0.111-0.859,0.336-1.111
				c0.228-0.256,0.525-0.381,0.889-0.381c0.357,0,0.652,0.123,0.892,0.355c0.236,0.238,0.354,0.566,0.354,0.984v0.244
				c0.453-0.535,0.936-0.932,1.445-1.18c0.516-0.26,1.082-0.387,1.713-0.387c0.65,0,1.211,0.131,1.678,0.391
				c0.469,0.26,0.853,0.654,1.16,1.176c0.439-0.527,0.908-0.922,1.41-1.18c0.5-0.258,1.053-0.387,1.662-0.387
				c0.705,0,1.32,0.143,1.834,0.42c0.51,0.277,0.893,0.68,1.147,1.195c0.221,0.473,0.33,1.209,0.33,2.217v5.063
				c0,0.547-0.121,0.951-0.367,1.227c-0.246,0.273-0.574,0.408-0.979,0.408c-0.394,0-0.715-0.139-0.965-0.412
				c-0.25-0.277-0.377-0.685-0.377-1.223v-4.361c0-0.559-0.023-1.004-0.068-1.338c-0.047-0.338-0.178-0.621-0.383-0.848
				c-0.213-0.227-0.531-0.344-0.953-0.344c-0.342,0-0.666,0.107-0.975,0.309c-0.307,0.197-0.547,0.477-0.721,0.813
				C508.125,771.269,508.027,772.045,508.027,773.154"/>
		</g>
		<g>
			<path style="fill:#EA881C;" d="M387.322,772.336c-0.002-0.004-0.002-0.01-0.002-0.01S387.32,772.332,387.322,772.336z"/>
			<path style="fill:#EA881C;" d="M387.453,773.166c0.002,0,0.002,0,0.002,0c-0.049-0.236-0.088-0.471-0.117-0.703
				C387.367,772.697,387.406,772.931,387.453,773.166z"/>
			<path style="fill:#EA881C;" d="M388.311,775.572c-0.006-0.01-0.01-0.022-0.016-0.033
				C388.301,775.55,388.305,775.562,388.311,775.572z"/>
			<path style="fill:#EA881C;" d="M388.229,775.412c-0.022-0.045-0.043-0.09-0.065-0.135
				C388.186,775.324,388.207,775.367,388.229,775.412z"/>
			<path style="fill:#EA881C;" d="M387.693,774.091c0.127,0.4,0.281,0.789,0.457,1.158c-0.18-0.377-0.33-0.766-0.453-1.158
				C387.697,774.091,387.695,774.091,387.693,774.091z"/>
			<path style="fill:#EA881C;" d="M397.359,762.4c0.502,0,0.871,0.039,1.295,0.111l0.121-0.764c0,0-1.172-0.359-2.711-0.234
				l-0.121-0.414c0.479-0.102,0.838-0.527,0.838-1.035c0-0.582-0.475-1.053-1.057-1.053c-0.584,0-1.057,0.471-1.057,1.053
				c0,0.508,0.359,0.934,0.836,1.035l0.135,0.463c-1.635,0.225-2.936,0.861-2.936,0.861l0.23,0.705
				c0.988-0.328,1.846-0.529,2.623-0.613C396.318,762.435,396.893,762.4,397.359,762.4z"/>
			<path style="fill:#EA881C;" d="M388.291,766.258l0.006-0.008c0.039-0.049,0.076-0.096,0.113-0.143l-0.313-0.225l-0.488-0.357
				c-0.027,0.039-0.795,0.744-1.4,2.049c-0.025-0.041-0.057-0.082-0.09-0.119c-0.181-0.199-0.435-0.301-0.758-0.295
				c-0.004,0-0.01,0-0.016,0c-0.199,0-0.336-0.066-0.426-0.146c0.088-0.113,0.143-0.256,0.143-0.414c0-0.367-0.301-0.668-0.67-0.668
				s-0.668,0.301-0.668,0.668c0,0.371,0.299,0.67,0.668,0.67c0.059,0,0.113-0.01,0.168-0.021c0.164,0.184,0.424,0.342,0.807,0.334
				c0.197-0.002,0.342,0.049,0.438,0.156c0.111,0.121,0.148,0.295,0.16,0.428c-0.002,0.002-0.002,0.004-0.004,0.004
				c-0.435,1.189-0.31,2.67-0.31,2.67l1.057,0.043c0.022-0.539,0.1-1.482,0.373-2.23
				C387.606,767.203,388.266,766.297,388.291,766.258z"/>
			<path style="fill:#EA881C;" d="M406.559,763.283c-0.367,0-0.668,0.299-0.668,0.67c0,0.057,0.008,0.111,0.023,0.164
				c-0.183,0.166-0.344,0.428-0.338,0.811c0.004,0.197-0.047,0.34-0.154,0.438c-0.084,0.074-0.191,0.115-0.295,0.141
				c-0.787-1.104-1.756-1.775-1.756-1.775l-0.76,0.813c0.574,0.521,1.16,1.176,1.728,1.99c0.395,0.565,0.799,1.291,1.137,2.016
				l1.023-0.486c0,0-0.467-1.156-1.125-2.191c0.113-0.041,0.229-0.104,0.33-0.193c0.201-0.18,0.299-0.436,0.293-0.758
				c-0.002-0.207,0.066-0.348,0.149-0.441c0.115,0.088,0.258,0.143,0.412,0.143c0.371,0,0.67-0.299,0.67-0.668
				C407.229,763.582,406.93,763.283,406.559,763.283z"/>
			<path style="fill:#EA881C;" d="M403.902,772.486c-1.41,0.685-3.728,1.594-6.781,2.02c-1.199,0.166-2.359,0.227-3.43,0.227
				c-1.391,0-2.619-0.104-3.563-0.223c-1.076-0.135-1.916-0.301-2.432-0.418c0.123,0.393,0.274,0.781,0.453,1.158
				c0.004,0.01,0.008,0.021,0.014,0.027c0.022,0.045,0.043,0.09,0.065,0.135c0.021,0.043,0.043,0.086,0.066,0.127
				c0.006,0.012,0.01,0.023,0.016,0.033c0.303,0.57,0.668,1.094,1.082,1.549c1.439,1.574,2.906,1.824,2.92,1.826l0.023,0.002
				l0.022,0.008c0.014,0.006,1.314,0.426,3.291,0.426c1.945,0,3.855-0.393,5.674-1.168c1.348-0.69,2.623-1.736,3.254-2.67
				c0.488-0.723,0.842-1.492,1.051-2.293c0.111-0.426,0.199-1.107,0.146-1.826C405.377,771.693,404.75,772.072,403.902,772.486z"/>
			<path style="fill:#EA881C;" d="M388.744,766.591c-0.041,0.061-0.652,0.926-1.135,2.254c-0.361,0.994-0.346,2.443-0.346,2.459
				v0.004c0,0.34,0.019,0.676,0.056,1.01c0,0,0,0.014,0.002,0.018c0.004,0.043,0.012,0.084,0.016,0.127
				c0.029,0.232,0.068,0.467,0.117,0.703c0.701,0.178,4.879,1.152,9.549,0.502c2.928-0.408,5.15-1.273,6.5-1.928
				c1.121-0.543,1.842-1.035,2.119-1.238c-0.277-1.027-1.041-2.641-1.742-3.646c-2.006-2.865-4.168-3.6-5.277-3.783
				c-0.424-0.068-0.764-0.109-1.244-0.109c-0.447,0-1.002,0.037-1.742,0.115c-0.744,0.076-1.572,0.271-2.533,0.596
				c-1.348,0.451-2.566,1.158-3.527,2.047l-0.031,0.031C389.383,765.883,389.086,766.158,388.744,766.591z M401.014,765.925
				c0.961,0,1.744,0.781,1.744,1.742c0,0.963-0.783,1.744-1.744,1.744c-0.961,0-1.742-0.781-1.742-1.744
				C399.272,766.707,400.053,765.925,401.014,765.925z M392.772,765.855c1.557,0,2.818,1.262,2.818,2.818
				c0,1.555-1.262,2.814-2.818,2.814c-1.555,0-2.815-1.26-2.815-2.814C389.957,767.117,391.217,765.855,392.772,765.855z"/>
		</g>
	</g>
</g>
</svg>
